<svg width="24" xmlns="http://www.w3.org/2000/svg" height="24" id="screenshot-0d8903c9-387c-809a-8007-2d20a4273d3b" viewBox="0 0 24 24" xmlns:xlink="http://www.w3.org/1999/xlink" fill="none" version="1.1"><g id="shape-0d8903c9-387c-809a-8007-2d20a4273d3b" width="24" height="24" rx="0" ry="0" style="fill: rgb(0, 0, 0);"><g id="shape-0d8903c9-387c-809a-8007-2d20a427be5c" style="display: none;"><g class="fills" id="fills-0d8903c9-387c-809a-8007-2d20a427be5c"><rect width="24" height="24" x="0" transform="matrix(1.000000, 0.000000, 0.000000, 1.000000, 0.000000, 0.000000)" style="fill: none;" ry="0" fill="none" rx="0" y="0"/></g><g fill="none" id="strokes-d8f09440-94e1-808b-8007-2d20b2204bc5-0d8903c9-387c-809a-8007-2d20a427be5c" class="strokes"><g class="stroke-shape"><rect rx="0" ry="0" x="0" y="0" transform="matrix(1.000000, 0.000000, 0.000000, 1.000000, 0.000000, 0.000000)" width="24" height="24" style="fill: none; stroke-width: 0; stroke: rgb(0, 0, 0); stroke-opacity: 1;"/></g></g></g><g id="shape-0d8903c9-387c-809a-8007-2d20a427cf40"><g class="fills" id="fills-0d8903c9-387c-809a-8007-2d20a427cf40"><path d="M3.75,11.999996185302734C3.75,11.58578109741211,4.0858154296875,11.249996185302734,4.5,11.249996185302734L17.68994140625,11.249996185302734L12.219970703125,5.779994487762451C11.944580078125,5.484492778778076,11.9527587890625,5.023982524871826,12.2384033203125,4.738368511199951C12.5240478515625,4.452754497528076,12.9844970703125,4.444636821746826,13.280029296875,4.719996929168701L20.030029296875,11.46999740600586C20.322509765625,11.762813568115234,20.322509765625,12.237178802490234,20.030029296875,12.52999496459961L13.280029296875,19.27999496459961C13.093017578125,19.480648040771484,12.8114013671875,19.56325912475586,12.545654296875,19.49538803100586C12.280029296875,19.42751693725586,12.072509765625,19.220027923583984,12.004638671875,18.954280853271484C11.936767578125,18.68856430053711,12.019287109375,18.406978607177734,12.219970703125,18.21999740600586L17.68994140625,12.749996185302734L4.5,12.749996185302734C4.0858154296875,12.749996185302734,3.75,12.41421127319336,3.75,11.999996185302734Z" stroke="none" stroke-width="0" fill-rule="evenodd" clip-rule="evenodd" style="fill: rgb(255, 255, 255); fill-opacity: 1;"/></g></g></g></svg>