<svg width="24" xmlns="http://www.w3.org/2000/svg" height="24" id="screenshot-eff815e0-bb25-8073-8007-29576de5de05" viewBox="0 0 24 24" xmlns:xlink="http://www.w3.org/1999/xlink" fill="none" version="1.1"><g id="shape-eff815e0-bb25-8073-8007-29576de5de05" width="24" height="24" rx="0" ry="0" style="fill: rgb(0, 0, 0);"><g id="shape-eff815e0-bb25-8073-8007-29576de67bed" style="display: none;"><g class="fills" id="fills-eff815e0-bb25-8073-8007-29576de67bed"><rect width="24" height="24" x="0" transform="matrix(1.000000, 0.000000, 0.000000, 1.000000, 0.000000, 0.000000)" style="fill: none;" ry="0" fill="none" rx="0" y="0"/></g><g fill="none" id="strokes-14044158-af99-809a-8007-2957813bec9a-eff815e0-bb25-8073-8007-29576de67bed" class="strokes"><g class="inner-stroke-shape" transform="matrix(1.000000, 0.000000, 0.000000, 1.000000, 0.000000, 0.000000)"><defs><clipPath id="inner-stroke-render-2-eff815e0-bb25-8073-8007-29576de67bed-0"><use href="#stroke-shape-render-2-eff815e0-bb25-8073-8007-29576de67bed-0"/></clipPath><rect rx="0" ry="0" x="0" y="0" width="24" height="24" id="stroke-shape-render-2-eff815e0-bb25-8073-8007-29576de67bed-0" style="fill: none; stroke-width: 3; stroke: rgb(255, 255, 255); stroke-opacity: 1;"/></defs><use href="#stroke-shape-render-2-eff815e0-bb25-8073-8007-29576de67bed-0" clip-path="url('#inner-stroke-render-2-eff815e0-bb25-8073-8007-29576de67bed-0')"/></g></g></g><g id="shape-eff815e0-bb25-8073-8007-29576de6bb0f"><g class="fills" id="fills-eff815e0-bb25-8073-8007-29576de6bb0f"><path d="M8.25,6.75L20.25,6.75M8.25,12L20.25,12M8.25,17.25L20.25,17.25M3.75,6.75L3.7569580078125,6.75L3.7569580078125,6.75799560546875L3.75,6.75799560546875L3.75,6.75ZM4.125,6.75C4.125,6.95709228515625,3.9571533203125,7.125,3.75,7.125C3.5428466796875,7.125,3.375,6.95709228515625,3.375,6.75C3.375,6.54290771484375,3.5428466796875,6.375,3.75,6.375C3.9571533203125,6.375,4.125,6.54290771484375,4.125,6.75ZM3.75,12L3.7569580078125,12L3.7569580078125,12.00799560546875L3.75,12.00799560546875L3.75,12ZM4.125,12C4.125,12.20709228515625,3.9571533203125,12.375,3.75,12.375C3.5428466796875,12.375,3.375,12.20709228515625,3.375,12C3.375,11.79290771484375,3.5428466796875,11.625,3.75,11.625C3.9571533203125,11.625,4.125,11.79290771484375,4.125,12ZM3.75,17.25L3.7569580078125,17.25L3.7569580078125,17.25799560546875L3.75,17.25799560546875L3.75,17.25ZM4.125,17.25C4.125,17.45709228515625,3.9571533203125,17.625,3.75,17.625C3.5428466796875,17.625,3.375,17.45709228515625,3.375,17.25C3.375,17.04290771484375,3.5428466796875,16.875,3.75,16.875C3.9571533203125,16.875,4.125,17.04290771484375,4.125,17.25Z" fill="none" stroke-linecap="round" stroke-linejoin="round" style="fill: rgb(255, 242, 242); fill-opacity: 1;"/></g><g fill="none" stroke-linecap="round" stroke-linejoin="round" id="strokes-14044158-af99-809a-8007-2957813d1a20-eff815e0-bb25-8073-8007-29576de6bb0f" class="strokes"><g class="stroke-shape"><path d="M8.25,6.75L20.25,6.75M8.25,12L20.25,12M8.25,17.25L20.25,17.25M3.75,6.75L3.7569580078125,6.75L3.7569580078125,6.75799560546875L3.75,6.75799560546875L3.75,6.75ZM4.125,6.75C4.125,6.95709228515625,3.9571533203125,7.125,3.75,7.125C3.5428466796875,7.125,3.375,6.95709228515625,3.375,6.75C3.375,6.54290771484375,3.5428466796875,6.375,3.75,6.375C3.9571533203125,6.375,4.125,6.54290771484375,4.125,6.75ZM3.75,12L3.7569580078125,12L3.7569580078125,12.00799560546875L3.75,12.00799560546875L3.75,12ZM4.125,12C4.125,12.20709228515625,3.9571533203125,12.375,3.75,12.375C3.5428466796875,12.375,3.375,12.20709228515625,3.375,12C3.375,11.79290771484375,3.5428466796875,11.625,3.75,11.625C3.9571533203125,11.625,4.125,11.79290771484375,4.125,12ZM3.75,17.25L3.7569580078125,17.25L3.7569580078125,17.25799560546875L3.75,17.25799560546875L3.75,17.25ZM4.125,17.25C4.125,17.45709228515625,3.9571533203125,17.625,3.75,17.625C3.5428466796875,17.625,3.375,17.45709228515625,3.375,17.25C3.375,17.04290771484375,3.5428466796875,16.875,3.75,16.875C3.9571533203125,16.875,4.125,17.04290771484375,4.125,17.25Z" style="fill: none; stroke-width: 1.5; stroke: rgb(255, 255, 255); stroke-opacity: 1;"/></g></g></g></g></svg>