<svg width="24" xmlns="http://www.w3.org/2000/svg" height="24" id="screenshot-06d1b07a-8a10-8025-8007-2a54f78ab874" viewBox="0 0 24 24" xmlns:xlink="http://www.w3.org/1999/xlink" fill="none" version="1.1"><g id="shape-06d1b07a-8a10-8025-8007-2a54f78ab874" width="24" height="24" rx="0" ry="0" style="fill: rgb(0, 0, 0);"><g id="shape-06d1b07a-8a10-8025-8007-2a54f7924661" width="24" height="24" rx="0" ry="0" style="fill: rgb(0, 0, 0);"><g id="shape-06d1b07a-8a10-8025-8007-2a54f7985ce7" width="24" height="24" rx="0" ry="0" style="fill: rgb(0, 0, 0);"><g id="shape-06d1b07a-8a10-8025-8007-2a54f798d70a" style="display: none;"><g class="fills" id="fills-06d1b07a-8a10-8025-8007-2a54f798d70a"><rect width="24" height="24" x="0" transform="matrix(1.000000, 0.000000, 0.000000, 1.000000, 0.000000, 0.000000)" style="fill: none;" ry="0" fill="none" rx="0" y="0"/></g><g fill="none" id="strokes-10dba6f1-c81b-8091-8007-2a554bb8bfed-06d1b07a-8a10-8025-8007-2a54f798d70a" class="strokes"><g class="stroke-shape"><rect rx="0" ry="0" x="0" y="0" transform="matrix(1.000000, 0.000000, 0.000000, 1.000000, 0.000000, 0.000000)" width="24" height="24" style="fill: none; stroke-width: 0; stroke: rgb(83, 77, 77); stroke-opacity: 1;"/></g></g></g><g id="shape-06d1b07a-8a10-8025-8007-2a54f798d70b"><g class="fills" id="fills-06d1b07a-8a10-8025-8007-2a54f798d70b"><path d="M11.999977111816406,22.000001907348633C6.477149963378906,22.000001907348633,1.9999769926071167,17.522798538208008,1.9999769926071167,12.000001907348633C1.9999769926071167,6.47714376449585,6.477149963378906,2.0000014305114746,11.999977111816406,2.0000014305114746C17.522804260253906,2.0000014305114746,21.999977111816406,6.47714376449585,21.999977111816406,12.000001907348633C21.999977111816406,17.522798538208008,17.522804260253906,22.000001907348633,11.999977111816406,22.000001907348633ZM11.999977111816406,20.000001907348633C16.418312072753906,20.000001907348633,19.999977111816406,16.418306350708008,19.999977111816406,12.000001907348633C19.999977111816406,7.581712245941162,16.418312072753906,4.000001430511475,11.999977111816406,4.000001430511475C7.581703186035156,4.000001430511475,3.999976873397827,7.581712245941162,3.999976873397827,12.000001907348633C3.999976873397827,16.418306350708008,7.581703186035156,20.000001907348633,11.999977111816406,20.000001907348633ZM11.002601623535156,16.000001907348633L6.759986877441406,11.757402420043945L8.174232482910156,10.343095779418945L11.002601623535156,13.171602249145508L16.659523010253906,7.514726161956787L18.073707580566406,8.928926467895508L11.002601623535156,16.000001907348633Z" stroke="none" stroke-width="0" style="fill: rgb(127, 123, 123); fill-opacity: 1;"/></g></g></g><g id="shape-06d1b07a-8a10-8025-8007-2a54f792eb43" style="display: none;"><g class="fills" id="fills-06d1b07a-8a10-8025-8007-2a54f792eb43"><rect width="24" height="24" x="0" transform="matrix(1.000000, 0.000000, 0.000000, 1.000000, 0.000000, 0.000000)" style="fill: none;" ry="0" fill="none" rx="0" y="0"/></g><g fill="none" id="strokes-10dba6f1-c81b-8091-8007-2a554bb9ced4-06d1b07a-8a10-8025-8007-2a54f792eb43" class="strokes"><g class="stroke-shape"><rect rx="0" ry="0" x="0" y="0" transform="matrix(1.000000, 0.000000, 0.000000, 1.000000, 0.000000, 0.000000)" width="24" height="24" style="fill: none; stroke-width: 0; stroke: rgb(92, 81, 81); stroke-opacity: 1;"/></g></g></g><g id="shape-06d1b07a-8a10-8025-8007-2a54f792eb44"><g class="fills" id="fills-06d1b07a-8a10-8025-8007-2a54f792eb44"><path d="M11.999977111816406,22.000001907348633C6.477149963378906,22.000001907348633,1.9999769926071167,17.522798538208008,1.9999769926071167,12.000001907348633C1.9999769926071167,6.47714376449585,6.477149963378906,2.0000014305114746,11.999977111816406,2.0000014305114746C17.522804260253906,2.0000014305114746,21.999977111816406,6.47714376449585,21.999977111816406,12.000001907348633C21.999977111816406,17.522798538208008,17.522804260253906,22.000001907348633,11.999977111816406,22.000001907348633ZM11.999977111816406,20.000001907348633C16.418312072753906,20.000001907348633,19.999977111816406,16.418306350708008,19.999977111816406,12.000001907348633C19.999977111816406,7.581712245941162,16.418312072753906,4.000001430511475,11.999977111816406,4.000001430511475C7.581703186035156,4.000001430511475,3.999976873397827,7.581712245941162,3.999976873397827,12.000001907348633C3.999976873397827,16.418306350708008,7.581703186035156,20.000001907348633,11.999977111816406,20.000001907348633ZM11.002601623535156,16.000001907348633L6.759986877441406,11.757402420043945L8.174232482910156,10.343095779418945L11.002601623535156,13.171602249145508L16.659523010253906,7.514726161956787L18.073707580566406,8.928926467895508L11.002601623535156,16.000001907348633Z" stroke="none" stroke-width="0" style="fill: rgb(0, 0, 0);"/></g></g></g><g id="shape-06d1b07a-8a10-8025-8007-2a54f78c4633" style="display: none;"><g class="fills" id="fills-06d1b07a-8a10-8025-8007-2a54f78c4633"><rect width="24" height="24" x="0" transform="matrix(1.000000, 0.000000, 0.000000, 1.000000, 0.000000, 0.000000)" style="fill: none;" ry="0" fill="none" rx="0" y="0"/></g><g fill="none" id="strokes-10dba6f1-c81b-8091-8007-2a554bba78dc-06d1b07a-8a10-8025-8007-2a54f78c4633" class="strokes"><g class="stroke-shape"><rect rx="0" ry="0" x="0" y="0" transform="matrix(1.000000, 0.000000, 0.000000, 1.000000, 0.000000, 0.000000)" width="24" height="24" style="fill: none; stroke-width: 0; stroke: rgb(92, 81, 81); stroke-opacity: 1;"/></g></g></g><g id="shape-06d1b07a-8a10-8025-8007-2a54f78ce08f"><g class="fills" id="fills-06d1b07a-8a10-8025-8007-2a54f78ce08f"><path d="M11.999977111816406,22.000001907348633C6.477149963378906,22.000001907348633,1.9999769926071167,17.522798538208008,1.9999769926071167,12.000001907348633C1.9999769926071167,6.47714376449585,6.477149963378906,2.0000014305114746,11.999977111816406,2.0000014305114746C17.522804260253906,2.0000014305114746,21.999977111816406,6.47714376449585,21.999977111816406,12.000001907348633C21.999977111816406,17.522798538208008,17.522804260253906,22.000001907348633,11.999977111816406,22.000001907348633ZM11.999977111816406,20.000001907348633C16.418312072753906,20.000001907348633,19.999977111816406,16.418306350708008,19.999977111816406,12.000001907348633C19.999977111816406,7.581712245941162,16.418312072753906,4.000001430511475,11.999977111816406,4.000001430511475C7.581703186035156,4.000001430511475,3.999976873397827,7.581712245941162,3.999976873397827,12.000001907348633C3.999976873397827,16.418306350708008,7.581703186035156,20.000001907348633,11.999977111816406,20.000001907348633ZM11.002601623535156,16.000001907348633L6.759986877441406,11.757402420043945L8.174232482910156,10.343095779418945L11.002601623535156,13.171602249145508L16.659523010253906,7.514726161956787L18.073707580566406,8.928926467895508L11.002601623535156,16.000001907348633Z" stroke="none" stroke-width="0" style="fill: rgb(157, 157, 157); fill-opacity: 1;"/></g></g></g></svg>