<svg width="24" xmlns="http://www.w3.org/2000/svg" height="24" id="screenshot-cdc24758-f3f1-80ff-8007-2ced0c71c490" viewBox="0 0 24 24" xmlns:xlink="http://www.w3.org/1999/xlink" fill="none" version="1.1"><g id="shape-cdc24758-f3f1-80ff-8007-2ced0c71c490" width="24" height="24" rx="0" ry="0" style="fill: rgb(0, 0, 0);"><g id="shape-cdc24758-f3f1-80ff-8007-2ced0c73ec38" style="display: none;"><g class="fills" id="fills-cdc24758-f3f1-80ff-8007-2ced0c73ec38"><rect width="24" height="24" x="0" transform="matrix(1.000000, 0.000000, 0.000000, 1.000000, 0.000000, 0.000000)" style="fill: none;" ry="0" fill="none" rx="0" y="0"/></g><g fill="none" id="strokes-5c3ae5b3-89ab-80d8-8007-2ced1dd49f01-cdc24758-f3f1-80ff-8007-2ced0c73ec38" class="strokes"><g class="stroke-shape"><rect rx="0" ry="0" x="0" y="0" transform="matrix(1.000000, 0.000000, 0.000000, 1.000000, 0.000000, 0.000000)" width="24" height="24" style="fill: none; stroke-width: 0; stroke: rgb(255, 255, 255); stroke-opacity: 1;"/></g></g></g><g id="shape-cdc24758-f3f1-80ff-8007-2ced0c7489bb"><g class="fills" id="fills-cdc24758-f3f1-80ff-8007-2ced0c7489bb"><path d="M12,20.89947509765625L16.94970703125,15.94970703125C19.683349609375,13.21612548828125,19.683349609375,8.783935546875,16.94970703125,6.05023193359375C14.216064453125,3.31658935546875,9.783935546875,3.31658935546875,7.05029296875,6.05023193359375C4.3165283203125,8.783935546875,4.3165283203125,13.21612548828125,7.05029296875,15.94970703125L12,20.89947509765625ZM12,23.7279052734375L5.635986328125,17.364013671875C2.121337890625,13.84918212890625,2.121337890625,8.1507568359375,5.635986328125,4.63604736328125C9.1507568359375,1.121337890625,14.8492431640625,1.121337890625,18.364013671875,4.63604736328125C21.878662109375,8.1507568359375,21.878662109375,13.84918212890625,18.364013671875,17.364013671875L12,23.7279052734375ZM12,13C13.1046142578125,13,14,12.1046142578125,14,11C14,9.89544677734375,13.1046142578125,9,12,9C10.8953857421875,9,10,9.89544677734375,10,11C10,12.1046142578125,10.8953857421875,13,12,13ZM12,15C9.7908935546875,15,8,13.2091064453125,8,11C8,8.79083251953125,9.7908935546875,7,12,7C14.2091064453125,7,16,8.79083251953125,16,11C16,13.2091064453125,14.2091064453125,15,12,15Z" stroke="none" stroke-width="0" style="fill: rgb(255, 255, 255); fill-opacity: 1;"/></g></g></g></svg>