<svg width="24" xmlns="http://www.w3.org/2000/svg" height="24" id="screenshot-3324ed81-de72-8051-8007-2a2a495966af" viewBox="0 0 24 24" xmlns:xlink="http://www.w3.org/1999/xlink" fill="none" version="1.1"><g id="shape-3324ed81-de72-8051-8007-2a2a495966af" width="24" height="24" rx="0" ry="0" style="fill: rgb(0, 0, 0);"><g id="shape-3324ed81-de72-8051-8007-2a2a495bbcc6" style="display: none;"><g class="fills" id="fills-3324ed81-de72-8051-8007-2a2a495bbcc6"><rect width="24" height="24" x="0" transform="matrix(1.000000, 0.000000, 0.000000, 1.000000, 0.000000, 0.000000)" style="fill: none;" ry="0" fill="none" rx="0" y="0"/></g><g fill="none" id="strokes-912737f4-ff45-8041-8007-2a2a5e175989-3324ed81-de72-8051-8007-2a2a495bbcc6" class="strokes"><g class="stroke-shape"><rect rx="0" ry="0" x="0" y="0" transform="matrix(1.000000, 0.000000, 0.000000, 1.000000, 0.000000, 0.000000)" width="24" height="24" style="fill: none; stroke-width: 0; stroke: rgb(255, 255, 255); stroke-opacity: 1;"/></g></g></g><g id="shape-3324ed81-de72-8051-8007-2a2a495c6f7e"><g class="fills" id="fills-3324ed81-de72-8051-8007-2a2a495c6f7e"><path d="M7.253662109375,18.494384765625L7.9783935546875,18.9169921875C9.1890869140625,19.62298583984375,10.5650634765625,20,12.0009765625,20C16.4193115234375,20,20.0009765625,16.41827392578125,20.0009765625,12C20.0009765625,7.58172607421875,16.4193115234375,4,12.0009765625,4C7.5826416015625,4,4.0009765625,7.58172607421875,4.0009765625,12C4.0009765625,13.436279296875,4.378173828125,14.81280517578125,5.084716796875,16.0238037109375L5.507080078125,16.747802734375L4.853515625,19.1494140625L7.253662109375,18.494384765625ZM2.005126953125,22L3.357177734375,17.031494140625C2.4949951171875,15.5535888671875,2.0009765625,13.83447265625,2.0009765625,12C2.0009765625,6.4771728515625,6.4781494140625,2,12.0009765625,2C17.5238037109375,2,22.0009765625,6.4771728515625,22.0009765625,12C22.0009765625,17.5228271484375,17.5238037109375,22,12.0009765625,22C10.1671142578125,22,8.448486328125,21.50640869140625,6.9708251953125,20.64471435546875L2.005126953125,22ZM8.392333984375,7.308349609375C8.5262451171875,7.2989501953125,8.6605224609375,7.2974853515625,8.7945556640625,7.30401611328125C8.8487548828125,7.30755615234375,8.9027099609375,7.3138427734375,8.95654296875,7.320068359375C9.1158447265625,7.33843994140625,9.291015625,7.4354248046875,9.349853515625,7.5689697265625C9.648193359375,8.245361328125,9.9376220703125,8.9256591796875,10.2181396484375,9.609619140625C10.2801513671875,9.7606201171875,10.2427978515625,9.95635986328125,10.125,10.14569091796875C10.065185546875,10.2427978515625,9.9713134765625,10.3790283203125,9.8624267578125,10.518310546875C9.7493896484375,10.66302490234375,9.5059814453125,10.9290771484375,9.5059814453125,10.9290771484375C9.5059814453125,10.9290771484375,9.4073486328125,11.04730224609375,9.444580078125,11.19439697265625C9.458984375,11.25,9.5052490234375,11.33099365234375,9.547119140625,11.39910888671875C9.5703125,11.43682861328125,9.591796875,11.47052001953125,9.605712890625,11.4937744140625C9.8616943359375,11.92108154296875,10.2056884765625,12.35430908203125,10.6258544921875,12.7615966796875C10.746337890625,12.8782958984375,10.8631591796875,12.99737548828125,10.9886474609375,13.10797119140625C11.45703125,13.5208740234375,11.98681640625,13.8582763671875,12.5589599609375,14.10821533203125L12.5640869140625,14.1104736328125C12.6485595703125,14.14691162109375,12.6920166015625,14.16680908203125,12.815673828125,14.21929931640625C12.8780517578125,14.2457275390625,12.94189453125,14.26849365234375,13.0074462890625,14.28582763671875C13.0311279296875,14.2919921875,13.055419921875,14.29547119140625,13.079833984375,14.29718017578125C13.241455078125,14.306884765625,13.3349609375,14.20318603515625,13.3748779296875,14.155517578125C14.098388671875,13.27899169921875,14.16455078125,13.2218017578125,14.1695556640625,13.22222900390625L14.1695556640625,13.22381591796875C14.2646484375,13.12359619140625,14.4141845703125,13.08880615234375,14.547607421875,13.09698486328125C14.6085205078125,13.1007080078125,14.6690673828125,13.1124267578125,14.7244873046875,13.1376953125C15.25634765625,13.38031005859375,16.1258544921875,13.75872802734375,16.1258544921875,13.75872802734375L16.707275390625,14.02008056640625C16.8046875,14.06707763671875,16.8935546875,14.17779541015625,16.89794921875,14.285400390625C16.9005126953125,14.352294921875,16.90771484375,14.4603271484375,16.8837890625,14.65789794921875C16.8525390625,14.9166259765625,16.7738037109375,15.22808837890625,16.695556640625,15.39129638671875C16.640625,15.50579833984375,16.5694580078125,15.607421875,16.486572265625,15.69342041015625C16.374267578125,15.80999755859375,16.2908935546875,15.88079833984375,16.1558837890625,15.98138427734375C16.07373046875,16.0426025390625,16.0311279296875,16.0714111328125,16.0311279296875,16.0714111328125C15.8922119140625,16.15899658203125,15.8138427734375,16.20281982421875,15.6484375,16.2908935546875C15.3909912109375,16.427978515625,15.1065673828125,16.50677490234375,14.8153076171875,16.52178955078125C14.629638671875,16.53131103515625,14.4444580078125,16.544677734375,14.2589111328125,16.53472900390625C14.250732421875,16.5341796875,13.690673828125,16.44818115234375,13.690673828125,16.44818115234375C12.268798828125,16.07421875,10.953857421875,15.37359619140625,9.850341796875,14.4019775390625C9.624755859375,14.203369140625,9.41552734375,13.988525390625,9.201904296875,13.77587890625C8.3128662109375,12.89080810546875,7.6397705078125,11.9364013671875,7.231689453125,11.0335693359375C7.0303955078125,10.58837890625,6.9029541015625,10.111572265625,6.9010009765625,9.6209716796875C6.8973388671875,9.0140380859375,7.095947265625,8.4232177734375,7.4656982421875,7.94183349609375C7.53857421875,7.84698486328125,7.6077880859375,7.74853515625,7.72705078125,7.6358642578125C7.853515625,7.5164794921875,7.9339599609375,7.45245361328125,8.0206298828125,7.4080810546875C8.1361083984375,7.3489990234375,8.262939453125,7.31744384765625,8.392333984375,7.308349609375Z" stroke="none" stroke-width="0" style="fill: rgb(255, 255, 255); fill-opacity: 1;"/></g></g></g></svg>